<?xml version="1.0" standalone="no"?>
<!DOCTYPE svg PUBLIC "-//W3C//DTD SVG 20010904//EN"
 "http://www.w3.org/TR/2001/REC-SVG-20010904/DTD/svg10.dtd">
<svg version="1.0" xmlns="http://www.w3.org/2000/svg"
 width="768.000000pt" height="768.000000pt" viewBox="0 0 768.000000 768.000000"
 preserveAspectRatio="xMidYMid meet">
<metadata>
Created by potrace 1.14, written by Peter Selinger 2001-2017
</metadata>
<g transform="translate(0.000000,768.000000) scale(0.100000,-0.100000)"
fill="#000000" stroke="none">
<path d="M2800 6316 c1 -22 1 -156 1 -297 l-1 -255 -327 0 -328 1 2 -1795 c1
-987 2 -1846 2 -1907 l1 -113 319 0 c246 0 320 -3 323 -12 2 -7 3 -149 2 -315
l-2 -303 889 0 888 0 3 174 c2 95 2 180 0 188 -3 13 -39 16 -260 18 -141 1
-390 3 -552 5 -162 2 -349 4 -416 4 l-121 1 0 118 -1 119 1149 -1 c632 -1
1149 1 1150 4 3 14 11 361 10 402 -1 16 -38 17 -553 18 -492 1 -1680 7 -1733
9 -21 1 -21 2 -19 694 1 380 2 694 3 697 1 6 516 11 1336 14 l430 1 1 208 c0
115 -2 210 -6 212 -3 2 -400 5 -883 6 -601 2 -877 6 -880 13 -6 18 -2 1104 4
1110 3 3 468 8 1035 12 566 4 1081 7 1144 8 l115 1 -4 130 c-2 72 -4 160 -5
198 l0 67 -151 1 c-82 0 -476 2 -875 4 -399 2 -845 4 -992 5 -198 1 -267 4
-270 13 -3 10 -2 146 1 198 1 16 55 17 649 17 356 1 658 1 672 1 25 1 25 2 24
79 -1 42 -3 125 -3 184 l-1 106 -886 0 -885 0 1 -42z m-4 -1539 c1 -306 -1
-557 -5 -558 -9 -1 -193 -1 -211 0 -14 1 -15 67 -16 554 0 303 3 554 7 557 4
3 56 5 116 5 l108 0 1 -558z m-1 -1692 l-1 -700 -114 0 -114 0 -1 695 c-1 382
0 697 1 700 1 3 53 5 116 5 l113 0 0 -700z"/>
</g>
</svg>
